<?xml version="1.0" encoding="utf-8"?>
<!-- Generator: Adobe Illustrator 24.0.3, SVG Export Plug-In . SVG Version: 6.00 Build 0)  -->
<!DOCTYPE svg PUBLIC "-//W3C//DTD SVG 1.1//EN" "http://www.w3.org/Graphics/SVG/1.1/DTD/svg11.dtd" [
	<!ENTITY ns_extend "http://ns.adobe.com/Extensibility/1.0/">
	<!ENTITY ns_ai "http://ns.adobe.com/AdobeIllustrator/10.0/">
	<!ENTITY ns_graphs "http://ns.adobe.com/Graphs/1.0/">
	<!ENTITY ns_vars "http://ns.adobe.com/Variables/1.0/">
	<!ENTITY ns_imrep "http://ns.adobe.com/ImageReplacement/1.0/">
	<!ENTITY ns_sfw "http://ns.adobe.com/SaveForWeb/1.0/">
	<!ENTITY ns_custom "http://ns.adobe.com/GenericCustomNamespace/1.0/">
	<!ENTITY ns_adobe_xpath "http://ns.adobe.com/XPath/1.0/">
]>
<svg version="1.1" id="Layer_1" xmlns:x="&ns_extend;" xmlns:i="&ns_ai;" xmlns:graph="&ns_graphs;"
	 xmlns="http://www.w3.org/2000/svg" xmlns:xlink="http://www.w3.org/1999/xlink" x="0px" y="0px" viewBox="0 0 120.4 112.5"
	 style="enable-background:new 0 0 120.4 112.5;" xml:space="preserve">
<style type="text/css">
	.st0{fill:#00FF00;}
	.st1{fill-rule:evenodd;clip-rule:evenodd;fill:#00FF00;}
	.st2{fill:none;stroke:#000000;stroke-width:6;stroke-linecap:round;stroke-linejoin:round;}
	.st3{fill:none;stroke:#000000;stroke-width:6;stroke-linecap:round;}
</style>
<metadata>
	<sfw  xmlns="&ns_sfw;">
		<slices></slices>
		<sliceSourceBounds  bottomLeftOrigin="true" height="112.5" width="120.4" x="4.2" y="8.9"></sliceSourceBounds>
	</sfw>
</metadata>
<g transform="matrix(1.4674 1.7112 -1.7112 1.4674 65.169 -25.599)">
	<path class="st0" d="M17.4,27.4L38.6,2.5c-3,3-3,5.4-3,9v36c0,6-6,9-9,9s-9-3-9-9C17.4,35.6,17.2,40.1,17.4,27.4L17.4,27.4z"/>
	<path class="st1" d="M35.2,14.7l-7.5-0.2"/>
	<path class="st1" d="M35.1,23.7l-7.5-0.2"/>
	<path class="st1" d="M35.1,32.6l-7.5-0.2"/>
	<path class="st1" d="M35.1,41.6l-7.5-0.2"/>
</g>
<path class="st2" d="M82.2,3l35.2,41.1c-9.5-0.7-13.6,2.8-19.8,8.1L36,105c-10.3,8.8-24.2,2.9-28.6-2.2S-0.7,83,9.6,74.2l61.6-52.8
	C77.4,16.1,81.5,12.5,82.2,3L82.2,3z"/>
<path class="st3" d="M91.8,56.2L81.1,43.1"/>
<path class="st3" d="M76,69.2L65.4,56.1"/>
<path class="st3" d="M60.8,82.3L50.1,69.2"/>
<path class="st3" d="M45.5,95.4L34.9,82.3"/>
</svg>
